/* XPM */
static char *result[] = {
/* columns rows colors chars-per-pixel */
"16 16 58 1 ",
"  c #897734",
". c #8B7B46",
"X c #93834D",
"o c #958653",
"O c #91845C",
"+ c #998B5D",
"@ c #A49343",
"# c #A19349",
"$ c #A1914C",
"% c #A39453",
"& c #AE9D5E",
"* c #998F66",
"= c #968C6B",
"- c #9C9273",
"; c #A29660",
": c #A19463",
"> c #A49962",
", c #A79D67",
"< c #AE9F65",
"1 c #A09670",
"2 c #A99E76",
"3 c #A79F7F",
"4 c #AEA47B",
"5 c #B4A978",
"6 c #B8AA7D",
"7 c #B9A87E",
"8 c #B9AF7C",
"9 c #A59F89",
"0 c #A5A089",
"q c #A4A08E",
"w c #AFA98F",
"e c #B6AB86",
"r c #B7AC87",
"t c #B9A884",
"y c #B8AD87",
"u c #BDAC86",
"i c #BDB081",
"p c #BEB387",
"a c #ADA894",
"s c #ACA897",
"d c #BFB792",
"f c #B4B19E",
"g c #C2B581",
"h c #C5BA80",
"j c #C3B788",
"k c #C6B489",
"l c #C3B88B",
"z c #C7BA8D",
"x c #C8BC8F",
"c c #C6BF95",
"v c #CBBF90",
"b c #CBBF95",
"n c #C0B79A",
"m c #CDC28E",
"M c #C8C092",
"N c #CDC392",
"B c #D4C9A3",
"V c None",
/* pixels */
"VVVVVVVVVVVVVVVV",
"VVVVVVVVVVVVVVVV",
"VVwO.+9VVV-Xo0VV",
"VVVV VVVVVV5qVVV",
"VVVV@VVVVVVNVVVV",
"VVVV#VVVVVVMVVVV",
"VVVe&nVVVVVgrVVV",
"VVVB<VVVVVVmdVVV",
"VVVV;VVVVVVcsVVV",
"tukb>yvxzjlh2i67",
"VVVV,VVVVVV8VVVV",
"VVVV%fVVVVV*VVVV",
"VVVV3$VVVVpVVVVV",
"VVVVVa:=14VVVVVV",
"VVVVVVVVVVVVVVVV",
"VVVVVVVVVVVVVVVV"
};
