/* XPM */
static char *result[] = {
/* columns rows colors chars-per-pixel */
"32 32 232 2 ",
"   c #5C4F36",
".  c #7E6F34",
"X  c #726438",
"o  c #726548",
"O  c #7C6E48",
"+  c #776D56",
"@  c #7D7353",
"#  c #86732E",
"$  c #89762E",
"%  c #806F30",
"&  c #837031",
"*  c #857231",
"=  c #837339",
"-  c #85733E",
";  c #907D3C",
":  c #927F3C",
">  c #807447",
",  c #89784A",
"<  c #897C4D",
"1  c #8E7D4D",
"2  c #907E45",
"3  c #867A53",
"4  c #857A5B",
"5  c #837B63",
"6  c #847C62",
"7  c #867D62",
"8  c #827B67",
"9  c #857E65",
"0  c #867E64",
"q  c #877F64",
"w  c #847D67",
"e  c #97852B",
"r  c #958233",
"t  c #97863B",
"y  c #96863E",
"u  c #9C893F",
"i  c #A08D35",
"p  c #A18E3C",
"a  c #AE9933",
"s  c #AD9A3C",
"d  c #918043",
"f  c #968740",
"g  c #958643",
"h  c #908044",
"j  c #958649",
"k  c #97844A",
"l  c #978B4F",
"z  c #99894E",
"x  c #9C8A4E",
"c  c #9C8C4C",
"v  c #8D8250",
"b  c #8E8453",
"n  c #908453",
"m  c #918554",
"M  c #908555",
"N  c #9C8355",
"B  c #92895D",
"V  c #9D8D58",
"C  c #9E8D59",
"Z  c #9F895C",
"A  c #A28E40",
"S  c #AC9B42",
"D  c #AD9944",
"F  c #AD9C47",
"G  c #AE9F4B",
"H  c #A08F57",
"J  c #A39157",
"K  c #AA9654",
"L  c #AA9A54",
"P  c #AB9857",
"I  c #AD9C55",
"U  c #A29158",
"Y  c #A2955A",
"T  c #B5A344",
"R  c #B0A051",
"E  c #BEAB54",
"W  c #B6A558",
"Q  c #BAAB5F",
"!  c #8C8261",
"~  c #8D8466",
"^  c #84806F",
"/  c #8A8368",
"(  c #998E60",
")  c #9D8C66",
"_  c #948D6E",
"`  c #888473",
"'  c #8D8772",
"]  c #888377",
"[  c #8E8774",
"{  c #938C77",
"}  c #958C77",
"|  c #9F8E70",
" . c #978F79",
".. c #9D937B",
"X. c #AA9460",
"o. c #AA966D",
"O. c #A9986A",
"+. c #AB996E",
"@. c #B09863",
"#. c #B59C66",
"$. c #AD9A72",
"%. c #AF9F70",
"&. c #A89876",
"*. c #A49578",
"=. c #B1A561",
"-. c #BBA167",
";. c #B6A965",
":. c #BAAC62",
">. c #B9AB65",
",. c #BAAD64",
"<. c #B5A76C",
"1. c #B9A16A",
"2. c #BEA66A",
"3. c #BEA76C",
"4. c #BCAF69",
"5. c #BFA96E",
"6. c #B7A47A",
"7. c #B7A67B",
"8. c #B7A47E",
"9. c #BEAA78",
"0. c #BCA87C",
"q. c #BFAB7F",
"w. c #BFB47D",
"e. c #C7B456",
"r. c #C8B250",
"t. c #C3B258",
"y. c #C2B25B",
"u. c #C3B25B",
"i. c #C0AA6C",
"p. c #C2AC6E",
"a. c #C2AD6E",
"s. c #C1AE6E",
"d. c #C3AE6F",
"f. c #C2AF6F",
"g. c #C4B563",
"h. c #C4B767",
"j. c #C7BA67",
"k. c #CCB965",
"l. c #C3B66A",
"z. c #C4B06F",
"x. c #CBBD6A",
"c. c #C0AB70",
"v. c #C3AF72",
"b. c #C0AE7A",
"n. c #C6B371",
"m. c #C5B372",
"M. c #C6B372",
"N. c #C6B373",
"B. c #C6B473",
"V. c #C5B274",
"C. c #C5B374",
"Z. c #C6B374",
"A. c #C6B474",
"S. c #C6B574",
"D. c #C1B77E",
"F. c #C5B67F",
"G. c #C5B97F",
"H. c #CBBC7D",
"J. c #938F82",
"K. c #928F83",
"L. c #908C85",
"P. c #9D9681",
"I. c #9C9787",
"U. c #93918A",
"Y. c #95938B",
"T. c #96938B",
"R. c #97968F",
"E. c #98958E",
"W. c #9B9991",
"Q. c #9D9B92",
"!. c #9C9A98",
"~. c #9E9C9C",
"^. c #A09F93",
"/. c #AAA189",
"(. c #B7AE83",
"). c #BBA980",
"_. c #BDAC81",
"`. c #B8A884",
"'. c #BDAE85",
"]. c #BEAE85",
"[. c #BEAF85",
"{. c #BEAF86",
"}. c #BFB083",
"|. c #BFB084",
" X c #BFB184",
".X c #B9B18C",
"XX c #A0A09F",
"oX c #AAA69C",
"OX c #B9B4A5",
"+X c #C5B580",
"@X c #C4B682",
"#X c #C6B682",
"$X c #C0B084",
"%X c #C0B085",
"&X c #C8BB84",
"*X c #C9BB86",
"=X c #C9BD85",
"-X c #C3B48A",
";X c #C9B688",
":X c #C5BA8E",
">X c #C6BC8E",
",X c #CCB889",
"<X c #CDBE88",
"1X c #CCBF89",
"2X c #D2BF8C",
"3X c #CEC18A",
"4X c #CFC28C",
"5X c #DCCD86",
"6X c #D0C28B",
"7X c #D0C68B",
"8X c #D0C28C",
"9X c #D0C38C",
"0X c #D2C08F",
"qX c #D6C88F",
"wX c #D3C995",
"eX c #D3C996",
"rX c #D2C997",
"tX c #D1C79A",
"yX c #D0C59D",
"uX c #D1CA99",
"iX c #D4CB9C",
"pX c #D4CE9F",
"aX c #D8CE9F",
"sX c #DDD59D",
"dX c #E3D79A",
"fX c #CECAAA",
"gX c #D1CBA5",
"hX c #D9CFA1",
"jX c #D4CEA9",
"kX c #DDD8B7",
"lX c #E2DDBA",
"zX c None",
/* pixels */
"zXzXzXzXzXzXzXzXzXzXzXzXzXzXzXzXzXzXzXzXzXzXzXzXzXzXzXzXzXzXzXzX",
"zXzXzXzXzXzXzXzXzXzXzXzXzXzXzXzXzXzXzXzXzXzXzXzXzXzXzXzXzXzXzXzX",
"zXzXzXzXzXzXzXzXzXzXzXzXzXzXzXzXzXzXzXzXzXzXzXzXzXzXzXzXzXzXzXzX",
"zXzXzXzXzXzXzXzXzXzXzXzXzXzXzXzXzXzXzXzXzXzXzXzXzXzXzXzXzXzXzXzX",
"zXzXzXzXzXzXzXzXzXzXzXzXzXzXzXzXzXzXzXzXzXzXzXzXzXzXzXzXzXzXzXzX",
"zXzXzXzX>X- 1 H V U K k ;  .zXzXzXzXzXzX2 , J C P x : P.zXzXzXzX",
"zXzXzXzXzXW.K.d   $ > T.Q.zXzXzXzXzXzXzX^.Y.< & * ] R.zXzXzXzXzX",
"zXzXzXzXzXzXzX7XX # XXzXzXzXzXzXzXzXzXzXzXzXfXA + zXzXzXzXzXzXzX",
"zXzXzXzXzXzXzXeXr a zXzXzXzXzXzXzXzXzXzXzXzXzXE 7 zXzXzXzXzXzXzX",
"zXzXzXzXzXzXzXwXt s zXzXzXzXzXzXzXzXzXzXzXzXzXe.q zXzXzXzXzXzXzX",
"zXzXzXzXzXzXzXrXy S zXzXzXzXzXzXzXzXzXzXzXzXzXt.0 zXzXzXzXzXzXzX",
"zXzXzXzXzXzXzXuXf F zXzXzXzXzXzXzXzXzXzXzXzXzXy.9 zXzXzXzXzXzXzX",
"zXzXzXzXzXzXzXpXg G zXzXzXzXzXzXzXzXzXzXzXzXzXu.w zXzXzXzXzXzXzX",
"zXzXzXzXzXzXzX:Xz L oXzXzXzXzXzXzXzXzXzXzXzXzXQ ~ zXzXzXzXzXzXzX",
"N Z X.@.#.1.3.5.c.c.v.V.N.C.Z.A.S.B.B.M.m.n.n.f.s.z.d.a.p.i.2.-.",
"zXzXzXzXzXzXzXiXY >.OXzXzXzXzXzXzXzXzXzXzXzXzXx._ zXzXzXzXzXzXzX",
"zXzXzXzXzXzXzXgXv =.zXzXzXzXzXzXzXzXzXzXzXzXzXj.^ zXzXzXzXzXzXzX",
"zXzXzXzXzXzXzXjXn ;.zXzXzXzXzXzXzXzXzXzXzXzXzXh.` zXzXzXzXzXzXzX",
"| *.&.$.o.) `.tXM 4.} %X'.].{.[. X$X|.}.|._.yXl.6 -X7.%.O.+.).8.",
"q.6.0.;X,X2X0XhXb ,...qX9X4X8X6X3X1X<X=X&XG.aXg./ *XF.@X#X+Xb.9.",
"zXzXzXzXzXzXzXkXm :.!.zXzXzXzXzXzXzXzXzXzXzXzXT U.zXzXzXzXzXzXzX",
"zXzXzXzXzXzXzXlXB w.E.zXzXzXzXzXzXzXzXzXzXzXzXe zXzXzXzXzXzXzXzX",
"zXzXzXzXzXzXzXzXl D.J.zXzXzXzXzXzXzXzXzXzXzX(.. zXzXzXzXzXzXzXzX",
"zXzXzXzXzXzXzXzXj R ( zXzXzXzXzXzXzXzXzXzXzXc 8 zXzXzXzXzXzXzXzX",
"zXzXzXzXzXzXzXzX{ i p I.zXzXzXzXzXzXzXzXzX5X% zXzXzXzXzXzXzXzXzX",
"zXzXzXzXzXzXzXzXzX! W D sXzXzXzXzXzXzXzXdXh ~.zXzXzXzXzXzXzXzXzX",
"zXzXzXzXzXzXzXzXzXzX[ = u r.<./..XH.k.I 4 zXzXzXzXzXzXzXzXzXzXzX",
"zXzXzXzXzXzXzXzXzXzXzXzXL.5 @ o O 3 ' zXzXzXzXzXzXzXzXzXzXzXzXzX",
"zXzXzXzXzXzXzXzXzXzXzXzXzXzXzXzXzXzXzXzXzXzXzXzXzXzXzXzXzXzXzXzX",
"zXzXzXzXzXzXzXzXzXzXzXzXzXzXzXzXzXzXzXzXzXzXzXzXzXzXzXzXzXzXzXzX",
"zXzXzXzXzXzXzXzXzXzXzXzXzXzXzXzXzXzXzXzXzXzXzXzXzXzXzXzXzXzXzXzX",
"zXzXzXzXzXzXzXzXzXzXzXzXzXzXzXzXzXzXzXzXzXzXzXzXzXzXzXzXzXzXzXzX"
};
