/* XPM */
static char *result[] = {
/* columns rows colors chars-per-pixel */
"48 48 191 2 ",
"   c #5A4D2E",
".  c #5D502E",
"X  c #4A423F",
"o  c #584F3D",
"O  c #5E543B",
"+  c #5F5337",
"@  c #66582F",
"#  c #715F29",
"$  c #635633",
"%  c #695B33",
"&  c #64593B",
"*  c #675932",
"=  c #76642E",
"-  c #7B672F",
";  c #6F633D",
":  c #756533",
">  c #746539",
",  c #7A6A39",
"<  c #766939",
"1  c #585040",
"2  c #625B48",
"3  c #635C54",
"4  c #6B6241",
"5  c #69614B",
"6  c #756A46",
"7  c #7D7042",
"8  c #6A6454",
"9  c #6F695E",
"0  c #6D6659",
"q  c #756F59",
"w  c #726C63",
"e  c #77736C",
"r  c #7D7A7A",
"t  c #7B7874",
"y  c #81722C",
"u  c #947F2D",
"i  c #947B23",
"p  c #8C7A33",
"a  c #897B3B",
"s  c #867738",
"d  c #907D3D",
"f  c #887A44",
"g  c #977D4B",
"h  c #967B46",
"j  c #837A51",
"k  c #817B6C",
"l  c #807E7D",
"z  c #847E74",
"x  c #96832D",
"c  c #9E8529",
"v  c #978333",
"b  c #998537",
"n  c #92823E",
"m  c #A68E24",
"M  c #A68E2D",
"N  c #A08C39",
"B  c #AC9737",
"V  c #B19D3C",
"C  c #B7A33E",
"Z  c #BDA73E",
"A  c #CBB02F",
"S  c #C7AF3D",
"D  c #E4C938",
"F  c #8C824B",
"G  c #938344",
"H  c #9F8E4F",
"J  c #998742",
"K  c #8A805B",
"L  c #9B8453",
"P  c #9C8D53",
"I  c #95875A",
"U  c #9C8D5D",
"Y  c #958754",
"T  c #9E9055",
"R  c #A3914E",
"E  c #AD9A4B",
"W  c #B09C49",
"Q  c #A68D56",
"!  c #A39457",
"~  c #AD935B",
"^  c #AB9C5D",
"/  c #A79859",
"(  c #B59A5C",
")  c #B59A5C",
"_  c #B5A241",
"`  c #B9A543",
"'  c #BBA94B",
"]  c #B8A748",
"[  c #BDAB55",
"{  c #B6A45B",
"}  c #B8A45A",
"|  c #89857D",
" . c #978972",
".. c #9B8E74",
"X. c #A08F68",
"o. c #A29266",
"O. c #A6966B",
"+. c #AC9C6C",
"@. c #A8966A",
"#. c #B49C60",
"$. c #B99F61",
"%. c #A18F71",
"&. c #A29375",
"*. c #AB9A76",
"=. c #A59678",
"-. c #AA9977",
";. c #B19D73",
":. c #B2A067",
">. c #BDA363",
",. c #BFA965",
"<. c #B9A76C",
"1. c #ABA37A",
"2. c #B1A072",
"3. c #BEAC74",
"4. c #B5A47B",
"5. c #B9A77D",
"6. c #C2AE46",
"7. c #C0B04D",
"8. c #C9B655",
"9. c #D0BB5D",
"0. c #C2AC66",
"q. c #C3AD69",
"w. c #C6B26D",
"e. c #CABC6E",
"r. c #C3B374",
"t. c #CBB574",
"y. c #C7B877",
"u. c #C1B77D",
"i. c #E4CE4B",
"p. c #E5CC43",
"a. c #E4CE59",
"s. c #E4D15B",
"d. c #DDCB6C",
"f. c #D9C666",
"g. c #DFCE77",
"h. c #DDCF7B",
"j. c #D5C774",
"k. c #DED07D",
"l. c #E9D46D",
"z. c #E3D47E",
"x. c #E8D679",
"c. c #8C8B8D",
"v. c #828180",
"b. c #928E8B",
"n. c #8E8E90",
"m. c #908F90",
"M. c #949394",
"N. c #95959A",
"B. c #9B9A9E",
"V. c #A09880",
"C. c #ACA180",
"Z. c #B4A682",
"A. c #BEAE83",
"S. c #BBAE8B",
"D. c #BFB084",
"F. c #BDB08C",
"G. c #AFAB9D",
"H. c #BAB193",
"J. c #9C9DA1",
"K. c #9EA0A2",
"L. c #A6A7A8",
"P. c #A5A8A9",
"I. c #B6B2A2",
"U. c #C5B585",
"Y. c #C3B592",
"T. c #C7BC96",
"R. c #C8BD96",
"E. c #C6BA99",
"W. c #CABD98",
"Q. c #DECF87",
"!. c #D0C68D",
"~. c #DDD183",
"^. c #DDD288",
"/. c #DED592",
"(. c #E5D482",
"). c #E9DE9A",
"_. c #E4DA98",
"`. c #F5E78C",
"'. c #F3E496",
"]. c #CEC7A1",
"[. c #D3CCAE",
"{. c #DFD6A4",
"}. c #E7DCA2",
"|. c #E8DDB9",
" X c #EAE0A2",
".X c #EBE2AC",
"XX c #EAE3B2",
"oX c #EFE8B0",
"OX c #E9E5BB",
"+X c #E1DFC7",
"@X c None",
/* pixels */
"@X@X@X@X@X@X@X@X@X@X@X@X@X@X@X@X@X@X@X@X@X@X@X@X@X@X@X@X@X@X@X@X@X@X@X@X@X@X@X@X@X@X@X@X@X@X@X@X",
"@X@X@X@X@X@X@X@X@X@X@X@X@X@X@X@X@X@X@X@X@X@X@X@X@X@X@X@X@X@X@X@X@X@X@X@X@X@X@X@X@X@X@X@X@X@X@X@X",
"@X@X@X@X@X@X@X@X@X@X@X@X@X@X@X@X@X@X@X@X@X@X@X@X@X@X@X@X@X@X@X@X@X@X@X@X@X@X@X@X@X@X@X@X@X@X@X@X",
"@X@X@X@X@X@X@X@X@X@X@X@X@X@X@X@X@X@X@X@X@X@X@X@X@X@X@X@X@X@X@X@X@X@X@X@X@X@X@X@X@X@X@X@X@X@X@X@X",
"@X@X@X@X@X@X@X@X@X@X@X@X@X@X@X@X@X@X@X@X@X@X@X@X@X@X@X@X@X@X@X@X@X@X@X@X@X@X@X@X@X@X@X@X@X@X@X@X",
"@X@X@X@X@X@X@X@X@X@X@X@X@X@X@X@X@X@X@X@X@X@X@X@X@X@X@X@X@X@X@X@X@X@X@X@X@X@X@X@X@X@X@X@X@X@X@X@X",
"@X@X@X@X@X@X@X@X@X@X@X@X@X@X@X@X@X@X@X@X@X@X@X@X@X@X@X@X@X@X@X@X@X@X@X@X@X@X@X@X@X@X@X@X@X@X@X@X",
"@X@X@X@X@X@X@X/ U o.@.@.+.+.+.+.:.#.{ H G.@X@X@X@X@X@X@X@X}.! U o.@.O.+.+.2.:.{ R @X@X@X@X@X@X@X",
"@X@X@X@X@X@X[., % $ p v # : p M = % :   b.@X@X@X@X@X@X@X@X].< % @ v b = M u % < $ M.@X@X@X@X@X@X",
"@X@X@X@X@X@X@X@X@X@Xt J 1 & B & c.@X@X@X@X@X@X@X@X@X@X@X@X@X@X@X@X9 G < u 3 P.@X@X@X@X@X@X@X@X@X",
"@X@X@X@X@X@X@X@X@X@X@Xf.o , : | @X@X@X@X@X@X@X@X@X@X@X@X@X@X@X@X@X@X[ n * L.@X@X@X@X@X@X@X@X@X@X",
"@X@X@X@X@X@X@X@X@X@X@Xk.O A y N.@X@X@X@X@X@X@X@X@X@X@X@X@X@X@X@X@X@X).N > @X@X@X@X@X@X@X@X@X@X@X",
"@X@X@X@X@X@X@X@X@X@X@Xh.$ D p B.@X@X@X@X@X@X@X@X@X@X@X@X@X@X@X@X@X@X.XW ; @X@X@X@X@X@X@X@X@X@X@X",
"@X@X@X@X@X@X@X@X@X@X@Xh.& p.p B.@X@X@X@X@X@X@X@X@X@X@X@X@X@X@X@X@X@X}.` ; @X@X@X@X@X@X@X@X@X@X@X",
"@X@X@X@X@X@X@X@X@X@X@Xh.& i.p B.@X@X@X@X@X@X@X@X@X@X@X@X@X@X@X@X@X@X.XZ 4 @X@X@X@X@X@X@X@X@X@X@X",
"@X@X@X@X@X@X@X@X@X@X@Xk.& i.a L.@X@X@X@X@X@X@X@X@X@X@X@X@X@X@X@X@X@XoXC 4 @X@X@X@X@X@X@X@X@X@X@X",
"@X@X@X@X@X@X@X@X@X@X@X~.& i.s L.@X@X@X@X@X@X@X@X@X@X@X@X@X@X@X@X@X@XXXC 4 @X@X@X@X@X@X@X@X@X@X@X",
"@X@X@X@X@X@X@X@X@X@X@X~.& s.a K.@X@X@X@X@X@X@X@X@X@X@X@X@X@X@X@X@X@XXX` 4 @X@X@X@X@X@X@X@X@X@X@X",
"@X@X@X@X@X@X@X@X@X@X@X~.& s.f J.@X@X@X@X@X@X@X@X@X@X@X@X@X@X@X@X@X@XXX] 4 @X@X@X@X@X@X@X@X@X@X@X",
"@X@X@X@X@X@X@X@X@X@X@X^.O s.f J.@X@X@X@X@X@X@X@X@X@X@X@X@X@X@X@X@X@XOXV & @X@X@X@X@X@X@X@X@X@X@X",
" . ...=.-.;.;.-.&.&.Z.r.I w.! C.E.Y.T.T.E.Y.T.T.!.E.E.!.T.T.R.R.!.E.U.>.U S.W.Y.4.5.4.*.Z.Y.Y.Y.",
"h g L Q Q ~ ) ( $.>.>.<.t.r.t.q.,.q.q.w.q.w.w.q.3.w.,.q.q.0.0.0.0.0.q.r.t.0.,.0.,.,.,.0.0.} ( ( ",
"@X@X@X@X@X@X@X@X@X@X|.Q.Y z.^ H.@X@X@X@X@X@X@X@X@X@X@X@X@X@X@X@X@X@X}.9.I [.@X@X@X@X@X@X@X@X@X@X",
"@X@X@X@X@X@X@X@X@X@X@X/.O z.F N.@X@X@X@X@X@X@X@X@X@X@X@X@X@X@X@X@X@XOX7.2 @X@X@X@X@X@X@X@X@X@X@X",
"@X@X@X@X@X@X@X@X@X@X@X/.O z.Y M.@X@X@X@X@X@X@X@X@X@X@X@X@X@X@X@X@X@XOX7.5 @X@X@X@X@X@X@X@X@X@X@X",
"@X@X@X@X@X@X@X@X@X@X@X_.O h.Y M.@X@X@X@X@X@X@X@X@X@X@X@X@X@X@X@X@X@XOX' 5 @X@X@X@X@X@X@X@X@X@X@X",
"@X@X@X@X@X@X@X@X@X@X@X/.2 (.P c.@X@X@X@X@X@X@X@X@X@X@X@X@X@X@X@X@X@XOX] 8 @X@X@X@X@X@X@X@X@X@X@X",
"%.&.=.*.O.*.;.o.&.Z.E.).& h./ z U.A.A.S.D.A.D.U.D.U.D.D.U.A.D.A.D.S.XX] 8 S.A.A.2.2.+.@.;.5.5.4.",
"g L L Q #.~ #.$.>.>.U. X& j./ k t.r.w.w.w.r.w.w.t.w.w.w.w.w.w.w.w.r..X` 0 r.q.q.q.q.q.q.0.>.>.$.",
"@X@X@X@X@X@X@X@X@X@X@X.X; j.^ | @X@X@X@X@X@X@X@X@X@X@X@X@X@X@X@X@X@X.XC 9 @X@X@X@X@X@X@X@X@X@X@X",
"@X@X@X@X@X@X@X@X@X@X@XXX; e.{ l @X@X@X@X@X@X@X@X@X@X@X@X@X@X@X@X@X@X_.B w @X@X@X@X@X@X@X@X@X@X@X",
"@X@X@X@X@X@X@X@X@X@X@XoX6 3.<.t @X@X@X@X@X@X@X@X@X@X@X@X@X@X@X@X@X@Xd.x r @X@X@X@X@X@X@X@X@X@X@X",
"@X@X@X@X@X@X@X@X@X@X@X.Xj 1.!.w @X@X@X@X@X@X@X@X@X@X@X@X@X@X@X@X@X@X` y M.@X@X@X@X@X@X@X@X@X@X@X",
"@X@X@X@X@X@X@X@X@X@X@X).! K ).8 @X@X@X@X@X@X@X@X@X@X@X@X@X@X@X@X@X@XM > @X@X@X@X@X@X@X@X@X@X@X@X",
"@X@X@X@X@X@X@X@X@X@X@X@X' 6 `.q @X@X@X@X@X@X@X@X@X@X@X@X@X@X@X@X@X=.b 0 @X@X@X@X@X@X@X@X@X@X@X@X",
"@X@X@X@X@X@X@X@X@X@X@X@XH 7 ' ] r @X@X@X@X@X@X@X@X@X@X@X@X@X@X@X@XE < n.@X@X@X@X@X@X@X@X@X@X@X@X",
"@X@X@X@X@X@X@X@X@X@X@X@X| n b V 6 @X@X@X@X@X@X@X@X@X@X@X@X@X@X@Xg.m 3 @X@X@X@X@X@X@X@X@X@X@X@X@X",
"@X@X@X@X@X@X@X@X@X@X@X@X@X5 8.[ G Q @X@X@X@X@X@X@X@X@X@X@X@X@X XS o @X@X@X@X@X@X@X@X@X@X@X@X@X@X",
"@X@X@X@X@X@X@X@X@X@X@X@X@X@X2 y.[ W x.+X@X@X@X@X@X@X@X@X@X@X'.} o L.@X@X@X@X@X@X@X@X@X@X@X@X@X@X",
"@X@X@X@X@X@X@X@X@X@X@X@X@X@X@X3 p u R f.s.y.I.@X@X@X@X(.l.9.f 3 @X@X@X@X@X@X@X@X@X@X@X@X@X@X@X@X",
"@X@X@X@X@X@X@X@X@X@X@X@X@X@X@X@XN.0 * # i u y - p c m u < 3 c.@X@X@X@X@X@X@X@X@X@X@X@X@X@X@X@X@X",
"@X@X@X@X@X@X@X@X@X@X@X@X@X@X@X@X@X@X@XN.l t w w w w z m.@X@X@X@X@X@X@X@X@X@X@X@X@X@X@X@X@X@X@X@X",
"@X@X@X@X@X@X@X@X@X@X@X@X@X@X@X@X@X@X@X@X@X@X@X@X@X@X@X@X@X@X@X@X@X@X@X@X@X@X@X@X@X@X@X@X@X@X@X@X",
"@X@X@X@X@X@X@X@X@X@X@X@X@X@X@X@X@X@X@X@X@X@X@X@X@X@X@X@X@X@X@X@X@X@X@X@X@X@X@X@X@X@X@X@X@X@X@X@X",
"@X@X@X@X@X@X@X@X@X@X@X@X@X@X@X@X@X@X@X@X@X@X@X@X@X@X@X@X@X@X@X@X@X@X@X@X@X@X@X@X@X@X@X@X@X@X@X@X",
"@X@X@X@X@X@X@X@X@X@X@X@X@X@X@X@X@X@X@X@X@X@X@X@X@X@X@X@X@X@X@X@X@X@X@X@X@X@X@X@X@X@X@X@X@X@X@X@X",
"@X@X@X@X@X@X@X@X@X@X@X@X@X@X@X@X@X@X@X@X@X@X@X@X@X@X@X@X@X@X@X@X@X@X@X@X@X@X@X@X@X@X@X@X@X@X@X@X",
"@X@X@X@X@X@X@X@X@X@X@X@X@X@X@X@X@X@X@X@X@X@X@X@X@X@X@X@X@X@X@X@X@X@X@X@X@X@X@X@X@X@X@X@X@X@X@X@X"
};
