<?xml version="1.0" encoding="UTF-8" standalone="no"?>
<!-- Generator: Adobe Illustrator 23.1.0, SVG Export Plug-In . SVG Version: 6.00 Build 0)  -->

<svg
   version="1.1"
   id="ic_emc"
   x="0px"
   y="0px"
   viewBox="0 0 24 24"
   style="enable-background:new 0 0 24 24;"
   xml:space="preserve"
   sodipodi:docname="ic-coin-uno.svg"
   inkscape:version="1.1 (c68e22c387, 2021-05-23)"
   xmlns:inkscape="http://www.inkscape.org/namespaces/inkscape"
   xmlns:sodipodi="http://sodipodi.sourceforge.net/DTD/sodipodi-0.dtd"
   xmlns="http://www.w3.org/2000/svg"
   xmlns:svg="http://www.w3.org/2000/svg"><defs
   id="defs16" /><sodipodi:namedview
   id="namedview14"
   pagecolor="#ffffff"
   bordercolor="#666666"
   borderopacity="1.0"
   inkscape:pageshadow="2"
   inkscape:pageopacity="0.0"
   inkscape:pagecheckerboard="0"
   showgrid="false"
   inkscape:zoom="33.833333"
   inkscape:cx="21.118227"
   inkscape:cy="11.866995"
   inkscape:window-width="1920"
   inkscape:window-height="1001"
   inkscape:window-x="-9"
   inkscape:window-y="-9"
   inkscape:window-maximized="1"
   inkscape:current-layer="ic_emc" />
<style
   type="text/css"
   id="style2">
	.st0{fill:#E08C6F;}
	.st1{fill:none;}
	.st2{fill:#FFFFFF;}
	.st3{font-family:'MyriadPro-Regular';}
	.st4{font-size:12px;}
</style>

<path
   id="Rectangle_4543"
   class="st1"
   d="M0,0h24v24H0V0z" />
<rect
   x="9"
   y="7.9"
   class="st1"
   width="9.1"
   height="11.6"
   id="rect9" />

<path
   style="font-variation-settings:normal;opacity:1;vector-effect:none;fill:#98d6fd;fill-opacity:1;stroke:none;stroke-width:0.000873597;stroke-linecap:butt;stroke-linejoin:miter;stroke-miterlimit:4;stroke-dasharray:none;stroke-dashoffset:0;stroke-opacity:1;-inkscape-stroke:none;stop-color:#000000;stop-opacity:1"
   d="M 11.216749,20.449918 C 8.0618205,20.155176 5.3039178,18.097836 4.1289363,15.162552 2.8523616,11.973474 3.6038213,8.370621 6.0474775,5.9641581 7.9882386,4.052936 10.637891,3.2027408 13.344828,3.6226537 c 1.730236,0.2684025 3.388064,1.116805 4.651889,2.3806295 3.299239,3.2992398 3.316936,8.6307798 0.03966,11.9487288 -1.437408,1.455247 -3.264383,2.315457 -5.31224,2.501207 -0.37704,0.0342 -1.123484,0.03256 -1.507389,-0.0033 z"
   id="path870"
   sodipodi:nodetypes="sssssssss" /><path
   style="font-variation-settings:normal;opacity:1;vector-effect:none;fill:#98d6fd;fill-opacity:1;stroke:none;stroke-width:0.000873597;stroke-linecap:butt;stroke-linejoin:miter;stroke-miterlimit:4;stroke-dasharray:none;stroke-dashoffset:0;stroke-opacity:1;-inkscape-stroke:none;stop-color:#000000;stop-opacity:1"
   d="M 11.438424,21.97288 C 10.656086,21.906058 10.164304,21.828908 9.579579,21.681268 6.3061354,20.854742 3.6533207,18.411102 2.552846,15.208593 1.7524308,12.879292 1.8529294,10.333347 2.8352588,8.0541872 3.8266456,5.754013 5.7616835,3.818916 8.0524909,2.8367956 11.071097,1.5426515 14.41852,1.7872259 17.227779,3.507174 c 1.271236,0.7783051 2.44293,1.9445348 3.234909,3.219825 0.80005,1.2882845 1.266583,2.6116206 1.457789,4.13507 0.07153,0.569955 0.07153,1.705907 0,2.275862 -0.18307,1.458622 -0.640125,2.79047 -1.369313,3.990148 -1.605575,2.641531 -4.265889,4.381724 -7.298833,4.774391 -0.444512,0.05755 -1.489545,0.09811 -1.813907,0.07041 z m 1.788177,-0.735785 c 1.745176,-0.239423 3.310725,-0.900361 4.655172,-1.965306 0.398071,-0.315314 1.133222,-1.050373 1.449309,-1.449129 1.029515,-1.298769 1.668499,-2.812041 1.909499,-4.522167 0.07339,-0.520744 0.07399,-1.87108 0.0011,-2.394089 C 21.090561,9.8226857 20.823572,8.9361168 20.364911,7.9950739 19.162814,5.528713 16.922696,3.7238337 14.238677,3.0591215 12.202999,2.5549746 9.9972869,2.7603172 8.0689655,3.6334961 5.295297,4.8894635 3.3127462,7.4519997 2.8248508,10.411751 c -0.2704973,1.640934 -0.1307077,3.254161 0.4137043,4.774314 0.1614925,0.450933 0.5865713,1.32681 0.8420837,1.735117 0.4433159,0.708417 1.0679281,1.456269 1.6529807,1.979125 1.533342,1.37033 3.3578959,2.172376 5.4092375,2.377815 0.414284,0.04149 1.661221,0.01694 2.083744,-0.04103 z"
   id="path1022" /><text
   xml:space="preserve"
   style="font-style:normal;font-weight:normal;font-size:13.4477px;line-height:1.25;font-family:sans-serif;fill:#ffffff;fill-opacity:1;stroke:none;stroke-width:0.336193"
   x="6.62954"
   y="17.900751"
   id="text5167"
   transform="scale(1.0408573,0.96074649)"><tspan
     sodipodi:role="line"
     id="tspan5165"
     x="6.62954"
     y="17.900751"
     style="stroke-width:0.336193">U</tspan></text></svg>
