<?xml version="1.0" encoding="UTF-8" standalone="no"?>
<!-- Generator: Adobe Illustrator 23.1.0, SVG Export Plug-In . SVG Version: 6.00 Build 0)  -->

<svg
   version="1.1"
   id="ic_zemc"
   x="0px"
   y="0px"
   viewBox="0 0 24 24"
   style="enable-background:new 0 0 24 24;"
   xml:space="preserve"
   sodipodi:docname="ic-coin-zuno.svg"
   inkscape:version="1.1 (c68e22c387, 2021-05-23)"
   xmlns:inkscape="http://www.inkscape.org/namespaces/inkscape"
   xmlns:sodipodi="http://sodipodi.sourceforge.net/DTD/sodipodi-0.dtd"
   xmlns="http://www.w3.org/2000/svg"
   xmlns:svg="http://www.w3.org/2000/svg"><defs
   id="defs16" /><sodipodi:namedview
   id="namedview14"
   pagecolor="#ffffff"
   bordercolor="#666666"
   borderopacity="1.0"
   inkscape:pageshadow="2"
   inkscape:pageopacity="0.0"
   inkscape:pagecheckerboard="0"
   showgrid="false"
   inkscape:zoom="33.833333"
   inkscape:cx="16.891626"
   inkscape:cy="12.280788"
   inkscape:window-width="1920"
   inkscape:window-height="1001"
   inkscape:window-x="-9"
   inkscape:window-y="-9"
   inkscape:window-maximized="1"
   inkscape:current-layer="ic_zemc" />
<style
   type="text/css"
   id="style2">
	.st0{fill:#E08C6F;}
	.st1{fill:none;}
	.st2{fill:#FFFFFF;}
	.st3{font-family:'MyriadPro-Regular';}
	.st4{font-size:12px;}
</style>
<g
   id="Group_8933">
	<g
   id="Group_8932">
		<path
   id="Path_18926"
   class="st0"
   d="M12,2C6.5,2,2,6.5,2,12s4.5,10,10,10s10-4.5,10-10S17.5,2,12,2z M12,21.3    c-5.1,0-9.3-4.1-9.3-9.3S6.9,2.8,12,2.8s9.3,4.1,9.3,9.3S17.1,21.3,12,21.3L12,21.3z"
   style="fill:#98d6fd;fill-opacity:1" />
		<path
   id="Path_18927"
   class="st0"
   d="M12,3.5c-4.7,0-8.5,3.8-8.5,8.5s3.8,8.5,8.5,8.5s8.5-3.8,8.5-8.5S16.7,3.5,12,3.5z M7.6,12.5    l4.7-5.6H7.7V6h5.9v0.8L9,12.3h4.7v0.8H7.6V12.5z"
   style="fill:#98d6fd;fill-opacity:1" />
	</g>
</g>
<path
   id="Rectangle_4542"
   class="st1"
   d="M0,0h24v24H0V0z" />
<rect
   x="11.4"
   y="10.1"
   class="st1"
   width="8.7"
   height="9.7"
   id="rect9" />

<text
   xml:space="preserve"
   style="font-style:normal;font-weight:normal;font-size:10px;line-height:1.25;font-family:sans-serif;fill:#000000;fill-opacity:1;stroke:none"
   x="10.526109"
   y="18.233006"
   id="text5816"><tspan
     sodipodi:role="line"
     id="tspan5814"
     x="10.526109"
     y="18.233006"
     style="font-size:10px;fill:#ffffff;fill-opacity:1">U</tspan></text></svg>
