<?xml version="1.0" encoding="UTF-8" standalone="no"?>
<!-- Generator: Adobe Illustrator 23.1.0, SVG Export Plug-In . SVG Version: 6.00 Build 0)  -->

<svg
   version="1.1"
   id="ic_empty_zterra_uno"
   x="0px"
   y="0px"
   viewBox="0 0 100 100"
   style="enable-background:new 0 0 100 100;"
   xml:space="preserve"
   sodipodi:docname="img-empty-privacy.svg"
   inkscape:version="1.1 (c68e22c387, 2021-05-23)"
   xmlns:inkscape="http://www.inkscape.org/namespaces/inkscape"
   xmlns:sodipodi="http://sodipodi.sourceforge.net/DTD/sodipodi-0.dtd"
   xmlns="http://www.w3.org/2000/svg"
   xmlns:svg="http://www.w3.org/2000/svg"><defs
   id="defs23" /><sodipodi:namedview
   id="namedview21"
   pagecolor="#ffffff"
   bordercolor="#666666"
   borderopacity="1.0"
   inkscape:pageshadow="2"
   inkscape:pageopacity="0.0"
   inkscape:pagecheckerboard="0"
   showgrid="false"
   inkscape:zoom="8.12"
   inkscape:cx="49.938424"
   inkscape:cy="50.061576"
   inkscape:window-width="1920"
   inkscape:window-height="1001"
   inkscape:window-x="-9"
   inkscape:window-y="-9"
   inkscape:window-maximized="1"
   inkscape:current-layer="ic_empty_zterra_uno" />
<style
   type="text/css"
   id="style2">
	.st0{fill:#D6D6D6;}
	.st1{fill:#666666;}
	.st2{fill:none;}
	.st3{font-family:'MyriadPro-Regular';}
	.st4{font-size:22px;}
</style>
<g
   id="Group_9086">
	<path
   id="Path_19031"
   class="st0"
   d="M50,26c-13.3,0-24,10.7-24,24s10.7,24,24,24s24-10.7,24-24S63.3,26,50,26z M50,68   c-9.9,0-18-8.1-18-18s8.1-18,18-18s18,8.1,18,18S59.9,68,50,68z" />
	<g
   id="Group_9085">
		<g
   id="Group_9083">
			<path
   id="Path_19032"
   class="st1"
   d="M50,31c-10.5,0-19,8.5-19,19s8.5,19,19,19s19-8.5,19-19S60.5,31,50,31z M50,67     c-9.4,0-17-7.6-17-17s7.6-17,17-17s17,7.6,17,17S59.4,67,50,67z" />
			<path
   id="Rectangle_4749"
   class="st1"
   d="M83,56h2v4h-2V56z" />
			<path
   id="Rectangle_4750"
   class="st1"
   d="M83,44h2v8h-2V44z" />
			<path
   id="Rectangle_4751"
   class="st1"
   d="M15,48h2v8h-2V48z" />
			<path
   id="Rectangle_4752"
   class="st1"
   d="M15,40h2v4h-2V40z" />
			<path
   id="Path_19033"
   class="st1"
   d="M95.2,71H85v-7h-2v9h7.8L76,90.5L61.2,73H68v-2h-4.5c11.6-7.5,15-22.9,7.5-34.5     c-6.4-9.9-18.9-14-29.9-9.8L24,6.5L4.8,29H15v7h2v-9H9.2L24,9.5L38.8,27H32v2h4.5c-11.6,7.5-15,22.9-7.5,34.5     c6.4,9.9,18.9,14,29.9,9.8L76,93.5L95.2,71z M27,50c0-12.7,10.3-23,23-23s23,10.3,23,23S62.7,73,50,73S27,62.7,27,50z" />
		</g>
		<path
   id="Path_19035"
   class="st1"
   d="M 52.8,38 H 41 v 1.7 h 9.2 L 43.776899,47.272498 40.7,50.9 v 1.4 H 53 v -1.7 h -9.4 l 9.3,-11 z"
   sodipodi:nodetypes="cccccccccccc" />
	</g>
</g>
<path
   id="Rectangle_4753"
   class="st2"
   d="M0,0h100v100H0V0z" />
<rect
   x="46.1"
   y="46.6"
   class="st2"
   width="14.6"
   height="17.3"
   id="rect16" />
<text
   transform="translate(46.1319,62.1969)"
   class="st1 st3 st4"
   id="text18"><tspan
     style="font-style:normal;font-variant:normal;font-weight:normal;font-stretch:normal;font-family:Arial;-inkscape-font-specification:Arial"
     id="tspan2026">U</tspan></text>
</svg>
